# xmcd
#
# Track frame offsets: 
#        150
#        20728
#        50388
#        64038
#        75688
#        93958
#        118853
#        149650
#
# Disc length: 2573 seconds
#
# Revision: 1
# Processed by: cddbd v1.5.2PL0 Copyright (c) Steve Scherf et al.
# Submitted via: ExactAudioCopyFreeDBPlugin 1.0
#
DISCID=6d0a0b08
DTITLE=Tedeschi Trucks Band - Let Me Get By
DYEAR=2015
DGENRE=Blues
TTITLE0=Hear Me (alternate mix)
TTITLE1=In Every Heart (alternate mix)
TTITLE2=Oh! You Pretty Things
TTITLE3=Just as Strange (alternate mix)
TTITLE4=Satie Groove
TTITLE5=Laugh About It (live at the Beacon Theatre)
TTITLE6=I Pity the Fool (live at the Beacon Theatre)
TTITLE7=Keep on Growing (live at the Beacon Theatre)
EXTD=
EXTT0=
EXTT1=
EXTT2=
EXTT3=
EXTT4=
EXTT5=
EXTT6=
EXTT7=
PLAYORDER=
